<svg width="80" height="79" viewBox="0 0 80 79" fill="none" xmlns="http://www.w3.org/2000/svg">
<g filter="url(#filter0_d_108_155)">
<circle cx="40" cy="27" r="18" fill="white"/>
</g>
<path d="M40 17C36.13 17 33 20.13 33 24C33 28.17 37.42 33.92 39.24 36.11C39.64 36.59 40.37 36.59 40.77 36.11C42.58 33.92 47 28.17 47 24C47 20.13 43.87 17 40 17ZM40 26.5C39.337 26.5 38.7011 26.2366 38.2322 25.7678C37.7634 25.2989 37.5 24.663 37.5 24C37.5 23.3369 37.7634 22.7011 38.2322 22.2322C38.7011 21.7634 39.337 21.5 40 21.5C40.663 21.5 41.2989 21.7634 41.7678 22.2322C42.2366 22.7011 42.5 23.3369 42.5 24C42.5 24.663 42.2366 25.2989 41.7678 25.7678C41.2989 26.2366 40.663 26.5 40 26.5Z" fill="url(#paint0_linear_108_155)"/>
<defs>
<filter id="filter0_d_108_155" x="0.846153" y="0.538461" width="78.3077" height="78.3077" filterUnits="userSpaceOnUse" color-interpolation-filters="sRGB">
<feFlood flood-opacity="0" result="BackgroundImageFix"/>
<feColorMatrix in="SourceAlpha" type="matrix" values="0 0 0 0 0 0 0 0 0 0 0 0 0 0 0 0 0 0 127 0" result="hardAlpha"/>
<feOffset dy="12.6923"/>
<feGaussianBlur stdDeviation="10.5769"/>
<feColorMatrix type="matrix" values="0 0 0 0 0.121569 0 0 0 0 0.141176 0 0 0 0 0.294118 0 0 0 0.25 0"/>
<feBlend mode="normal" in2="BackgroundImageFix" result="effect1_dropShadow_108_155"/>
<feBlend mode="normal" in="SourceGraphic" in2="effect1_dropShadow_108_155" result="shape"/>
</filter>
<linearGradient id="paint0_linear_108_155" x1="40" y1="17" x2="40" y2="36.47" gradientUnits="userSpaceOnUse">
<stop stop-color="#3CD18A"/>
<stop offset="0.0001" stop-color="#3C6FD1"/>
<stop offset="1" stop-color="#7CA9FF"/>
</linearGradient>
</defs>
</svg>
